{
  "accessors": [
    {
      "bufferView": 3,
      "componentType": 5126,
      "count": 5605,
      "max": [
        65.05705261230469,
        179.95455932617188,
        15.979511260986328
      ],
      "min": [
        -65.05705261230469,
        -0.030518364161252975,
        -17.598716735839844
      ],
      "type": "VEC3"
    },
    {
      "bufferView": 3,
      "byteOffset": 67260,
      "componentType": 5126,
      "count": 5605,
      "max": [
        1.0,
        1.0,
        1.0
      ],
      "min": [
        -1.0,
        -1.0,
        -1.0
      ],
      "type": "VEC3"
    },
    {
      "bufferView": 2,
      "componentType": 5126,
      "count": 5605,
      "max": [
        0.9960132837295532,
        0.9940281510353088
      ],
      "min": [
        0.004622936248779297,
        0.006579550914466381
      ],
      "type": "VEC2"
    },
    {
      "bufferView": 1,
      "componentType": 5125,
      "count": 18396,
      "type": "SCALAR"
    },
    {
      "bufferView": 5,
      "componentType": 5126,
      "count": 50,
      "max": [
        1.0,
        0.8430556058883667,
        1.0,
        0.0,
        0.9962406158447266,
        1.0,
        0.5609337687492371,
        0.0,
        0.7933534383773804,
        0.9995502829551697,
        1.0,
        0.0,
        103.21942901611328,
        138.8090057373047,
        51.88389587402344,
        1.0
      ],
      "min": [
        -1.6073994685790108e-16,
        -0.013730589300394058,
        -1.0,
        0.0,
        -0.9995502829551697,
        -1.0,
        -0.19457226991653442,
        0.0,
        -1.0,
        -0.9995821714401245,
        -0.9999952912330627,
        0.0,
        -157.87100219726563,
        -138.8085479736328,
        -98.116455078125,
        1.0
      ],
      "type": "MAT4"
    },
    {
      "bufferView": 0,
      "componentType": 5123,
      "count": 5605,
      "type": "VEC4"
    },
    {
      "bufferView": 4,
      "componentType": 5126,
      "count": 5605,
      "max": [
        1.0,
        0.5,
        0.17028428614139557,
        0.0
      ],
      "min": [
        0.44999998807907104,
        0.0,
        0.0,
        0.0
      ],
      "type": "VEC4"
    }
  ],
  "asset": {
    "extras": {
      "author": "That-one-ripper (https://sketchfab.com/GorillaTagModels)",
      "license": "CC-BY-4.0 (http://creativecommons.org/licenses/by/4.0/)",
      "source": "https://sketchfab.com/3d-models/robot-kyle-with-textures-28731ca53ccd48aaa67a82ac9aeeaa66",
      "title": "Robot Kyle With Textures"
    },
    "generator": "Sketchfab-16.62.0",
    "version": "2.0"
  },
  "bufferViews": [
    {
      "buffer": 0,
      "byteLength": 44840,
      "byteStride": 8,
      "name": "shortBufferViews",
      "target": 34962
    },
    {
      "buffer": 0,
      "byteLength": 73584,
      "byteOffset": 44840,
      "name": "floatBufferViews",
      "target": 34963
    },
    {
      "buffer": 0,
      "byteLength": 44840,
      "byteOffset": 118424,
      "byteStride": 8,
      "name": "floatBufferViews",
      "target": 34962
    },
    {
      "buffer": 0,
      "byteLength": 134520,
      "byteOffset": 163264,
      "byteStride": 12,
      "name": "floatBufferViews",
      "target": 34962
    },
    {
      "buffer": 0,
      "byteLength": 89680,
      "byteOffset": 297784,
      "byteStride": 16,
      "name": "floatBufferViews",
      "target": 34962
    },
    {
      "buffer": 0,
      "byteLength": 3200,
      "byteOffset": 387464,
      "name": "floatBufferViews"
    }
  ],
  "buffers": [
    {
      "byteLength": 390664,
      "uri": "scene.bin"
    }
  ],
  "images": [
    {
      "uri": "textures/Robot_baseColor.jpeg"
    }
  ],
  "materials": [
    {
      "doubleSided": true,
      "name": "Robot",
      "pbrMetallicRoughness": {
        "baseColorTexture": {
          "index": 0
        },
        "metallicFactor": 0.0,
        "roughnessFactor": 0.9147823860699966
      }
    }
  ],
  "meshes": [
    {
      "name": "Robot2_Robot_0",
      "primitives": [
        {
          "attributes": {
            "JOINTS_0": 5,
            "NORMAL": 1,
            "POSITION": 0,
            "TEXCOORD_0": 2,
            "TEXCOORD_1": 2,
            "TEXCOORD_2": 2,
            "WEIGHTS_0": 6
          },
          "indices": 3,
          "material": 0,
          "mode": 4
        }
      ]
    }
  ],
  "nodes": [
    {
      "children": [
        1
      ],
      "matrix": [
        1.0,
        0.0,
        0.0,
        0.0,
        0.0,
        2.220446049250313e-16,
        -1.0,
        0.0,
        0.0,
        1.0,
        2.220446049250313e-16,
        0.0,
        0.0,
        0.0,
        0.0,
        1.0
      ],
      "name": "Sketchfab_model"
    },
    {
      "children": [
        2
      ],
      "matrix": [
        0.009999999776482582,
        0.0,
        0.0,
        0.0,
        0.0,
        0.0,
        0.009999999776482582,
        0.0,
        0.0,
        -0.009999999776482582,
        0.0,
        0.0,
        0.0,
        0.0,
        0.0,
        1.0
      ],
      "name": "Robot Kyle.fbx"
    },
    {
      "children": [
        3
      ],
      "name": "RootNode"
    },
    {
      "children": [
        4,
        6,
        5
      ],
      "name": "Object_3"
    },
    {
      "children": [
        7
      ],
      "name": "_rootJoint"
    },
    {
      "matrix": [
        1.0,
        -9.860761315262648e-32,
        0.0,
        0.0,
        9.860761315262648e-32,
        1.0,
        -1.3568226917905515e-31,
        0.0,
        1.3379304710878805e-62,
        1.3568226917905515e-31,
        1.0,
        0.0,
        -6.310887241768095e-30,
        0.0,
        8.881784197001252e-16,
        1.0
      ],
      "name": "Object_5"
    },
    {
      "mesh": 0,
      "name": "Object_6",
      "skin": 0
    },
    {
      "children": [
        8,
        47
      ],
      "name": "Root_01",
      "rotation": [
        0.47294455766677856,
        0.525664746761322,
        0.47294455766677856,
        0.525664746761322
      ],
      "translation": [
        2.1878564168239e-31,
        106.2830810546875,
        3.5129854679107666
      ]
    },
    {
      "children": [
        9,
        11,
        29
      ],
      "name": "Ribs_02",
      "rotation": [
        -2.4564149696131858e-32,
        -9.475177274610653e-33,
        0.009375347755849361,
        0.9999560713768005
      ],
      "translation": [
        8.024527549743652,
        0.06216725334525108,
        -9.823170261832577e-16
      ]
    },
    {
      "children": [
        10
      ],
      "name": "Neck_03",
      "rotation": [
        4.128089306274201e-32,
        5.619269130228743e-32,
        0.1512235850095749,
        0.9884995818138123
      ],
      "translation": [
        39.53994369506836,
        1.2434497875801753e-14,
        -8.901550557858379e-15
      ]
    },
    {
      "name": "Head_04",
      "rotation": [
        -2.465190328815662e-32,
        -6.77927340424307e-32,
        -0.0,
        1.0
      ],
      "translation": [
        7.9593119621276855,
        0.0,
        -2.096213844458893e-15
      ]
    },
    {
      "children": [
        12
      ],
      "name": "Left_Shoulder_Joint_01_05",
      "rotation": [
        -0.4105822741985321,
        -0.44783446192741394,
        -0.5367563366889954,
        0.5854563117027283
      ],
      "translation": [
        24.796545028686523,
        -1.8968333005905151,
        13.130725860595703
      ]
    },
    {
      "children": [
        13
      ],
      "name": "Left_Upper_Arm_Joint_01_06",
      "rotation": [
        0.11403316259384155,
        -0.009781059809029102,
        -0.439645916223526,
        0.8908492922782898
      ],
      "translation": [
        6.358526706695557,
        0.0,
        -3.1086244689504383e-15
      ]
    },
    {
      "children": [
        14
      ],
      "name": "Left_Forearm_Joint_01_07",
      "rotation": [
        -0.05499202013015747,
        -0.10791634023189545,
        0.4508524537086487,
        0.8843427300453186
      ],
      "translation": [
        23.83711051940918,
        3.5324671268463135,
        -0.1260564625263214
      ]
    },
    {
      "children": [
        15,
        18,
        21,
        24,
        27
      ],
      "name": "Left_Wrist_Joint_01_08",
      "rotation": [
        -0.003413440892472863,
        -0.0066458191722631454,
        -0.45418107509613037,
        0.8908782005310059
      ],
      "translation": [
        17.692583084106445,
        -24.830171585083008,
        4.193508148193359
      ]
    },
    {
      "children": [
        16
      ],
      "name": "Left_Index_Finger_Joint_01a_09",
      "rotation": [
        0.010312937200069427,
        0.00012049041106365621,
        -0.011682003736495972,
        0.9998785853385925
      ],
      "translation": [
        7.0132222175598145,
        1.247532606124878,
        2.5505244731903076
      ]
    },
    {
      "children": [
        17
      ],
      "name": "Left_Index_Finger_Joint_01b_010",
      "rotation": [
        0.0007113587344065309,
        -0.0004798608715645969,
        -0.011196685023605824,
        0.9999369382858276
      ],
      "translation": [
        4.053394794464111,
        0.0,
        0.0
      ]
    },
    {
      "name": "Left_Index_Finger_Joint_01c_011",
      "rotation": [
        -0.01101660542190075,
        0.00025215919595211744,
        0.022881628945469856,
        0.9996775388717651
      ],
      "translation": [
        2.2945139408111572,
        -4.263256414560601e-14,
        8.881784197001252e-16
      ]
    },
    {
      "children": [
        19
      ],
      "name": "Left_Middle_Finger_Joint_01a_012",
      "rotation": [
        0.010313046164810658,
        0.00011086465383414179,
        -0.010748750530183315,
        0.9998891353607178
      ],
      "translation": [
        7.180986404418945,
        1.247532606124878,
        0.5054818987846375
      ]
    },
    {
      "children": [
        20
      ],
      "name": "Left_Middle_Finger_Joint_01b_00",
      "rotation": [
        0.0006498134462162852,
        -0.0004409577522892505,
        -0.010304516181349754,
        0.9999465942382813
      ],
      "translation": [
        4.405282974243164,
        0.0,
        8.881784197001252e-16
      ]
    },
    {
      "name": "Left_Middle_Finger_Joint_01c_013",
      "rotation": [
        -0.010956354439258575,
        0.0002307638496858999,
        0.021056167781352997,
        0.9997182488441467
      ],
      "translation": [
        2.493337869644165,
        2.842170943040401e-14,
        -8.881784197001252e-16
      ]
    },
    {
      "children": [
        22
      ],
      "name": "Left_Ring_Finger_Joint_01a_014",
      "rotation": [
        0.010312854312360287,
        0.00012740763486362994,
        -0.012352654710412025,
        0.9998705387115479
      ],
      "translation": [
        7.225720405578613,
        1.247532606124878,
        -1.486182451248169
      ]
    },
    {
      "children": [
        23
      ],
      "name": "Left_Ring_Finger_Joint_01b_015",
      "rotation": [
        0.0007561775855720043,
        -0.0005079144611954689,
        -0.011838989332318306,
        0.9999296069145203
      ],
      "translation": [
        3.8333587646484375,
        -1.4210854715202004e-14,
        8.881784197001252e-16
      ]
    },
    {
      "name": "Left_Ring_Finger_Joint_01c_016",
      "rotation": [
        -0.011060424149036407,
        0.00026769700343720615,
        0.02419457398355007,
        0.9996460676193237
      ],
      "translation": [
        2.1700656414031982,
        -1.4210854715202004e-14,
        8.881784197001252e-16
      ]
    },
    {
      "children": [
        25
      ],
      "name": "Left_Pinky_Finger_Joint_01a_017",
      "rotation": [
        0.010312399826943874,
        0.00016005653014872223,
        -0.01551808975636959,
        0.9998263716697693
      ],
      "translation": [
        7.212004661560059,
        1.247532606124878,
        -3.3236191272735596
      ]
    },
    {
      "children": [
        26
      ],
      "name": "Left_Pinky_Finger_Joint_01b_018",
      "rotation": [
        0.0009738355875015259,
        -0.0006409738562069833,
        -0.01486213319003582,
        0.9998888969421387
      ],
      "translation": [
        3.051551342010498,
        0.0,
        0.0
      ]
    },
    {
      "name": "Left_Pinky_Finger_Joint_01c_019",
      "rotation": [
        -0.011272594332695007,
        0.0003426716721151024,
        0.030382683500647545,
        0.9994747042655945
      ],
      "translation": [
        1.7283713817596436,
        -4.263256414560601e-14,
        1.7763568394002505e-15
      ]
    },
    {
      "children": [
        28
      ],
      "name": "Left_Thumb_Joint_01a_020",
      "rotation": [
        0.42036256194114685,
        -0.3718041479587555,
        0.08352769166231155,
        0.823456346988678
      ],
      "translation": [
        4.688731670379639,
        -0.4865311086177826,
        4.698833465576172
      ]
    },
    {
      "name": "Left_Thumb_Joint_01b_021",
      "rotation": [
        -0.42036256194114685,
        0.3718041479587555,
        -0.08352769166231155,
        0.823456346988678
      ],
      "translation": [
        2.8778247833251953,
        -0.1648058444261551,
        -0.24038630723953247
      ]
    },
    {
      "children": [
        30
      ],
      "name": "Right_Shoulder_Joint_01_022",
      "rotation": [
        0.44783446192741394,
        -0.4105822741985321,
        0.5854563117027283,
        0.5367563366889954
      ],
      "translation": [
        24.796993255615234,
        -1.8967911005020142,
        -13.13070011138916
      ]
    },
    {
      "children": [
        31
      ],
      "name": "Right_Upper_Arm_Joint_01_023",
      "rotation": [
        -0.0008169309003278613,
        0.057828888297080994,
        -0.36165696382522583,
        0.9305156469345093
      ],
      "translation": [
        -6.358556270599365,
        2.842170943040401e-14,
        -3.925994406017708e-06
      ]
    },
    {
      "children": [
        32
      ],
      "name": "Right_Forearm_Joint_01_024",
      "rotation": [
        0.7767065167427063,
        -0.18686023354530334,
        0.02567022666335106,
        0.6009586453437805
      ],
      "translation": [
        -24.062023162841797,
        0.5143739581108093,
        -1.211796760559082
      ]
    },
    {
      "children": [
        33,
        36,
        39,
        42,
        45
      ],
      "name": "Right_Wrist_Joint_01_025",
      "rotation": [
        -0.7059571743011475,
        0.01568770222365856,
        -0.006802777759730816,
        0.7080481648445129
      ],
      "translation": [
        -30.588375091552734,
        -3.3172922134399414,
        0.7066546082496643
      ]
    },
    {
      "children": [
        34
      ],
      "name": "Right_Index_Finger_Joint_01a_026",
      "rotation": [
        0.010504893027245998,
        -0.00877968966960907,
        -0.001717953709885478,
        0.9999048113822937
      ],
      "translation": [
        -6.940201282501221,
        -1.3847475051879883,
        -2.676403522491455
      ]
    },
    {
      "children": [
        35
      ],
      "name": "Right_Index_Finger_Joint_01b_027",
      "rotation": [
        0.0007113587344065309,
        -0.0004798608715645969,
        -0.011196685023605824,
        0.9999369382858276
      ],
      "translation": [
        -4.053421974182129,
        -9.354331996291876e-05,
        2.2560923298442503e-06
      ]
    },
    {
      "name": "Right_Index_Finger_Joint_01c_028",
      "rotation": [
        -0.01101660542190075,
        0.00025215919595211744,
        0.022881628945469856,
        0.9996775388717651
      ],
      "translation": [
        -2.294480323791504,
        -7.977573659445625e-06,
        -7.166869181673974e-06
      ]
    },
    {
      "children": [
        37
      ],
      "name": "Right_Middle_Finger_Joint_01a_029",
      "rotation": [
        0.010496694594621658,
        -0.008789491839706898,
        -0.0007846789667382836,
        0.999906063079834
      ],
      "translation": [
        -7.144746780395508,
        -1.3888802528381348,
        -0.6347213387489319
      ]
    },
    {
      "children": [
        38
      ],
      "name": "Right_Middle_Finger_Joint_01b_030",
      "rotation": [
        0.0006498134462162852,
        -0.0004409577522892505,
        -0.010304516181349754,
        0.9999465942382813
      ],
      "translation": [
        -4.405302047729492,
        6.337014201562852e-05,
        -1.9575732039811555e-06
      ]
    },
    {
      "name": "Right_Middle_Finger_Joint_01c_031",
      "rotation": [
        -0.010956354439258575,
        0.0002307638496858999,
        0.021056167781352997,
        0.9997182488441467
      ],
      "translation": [
        -2.4932732582092285,
        -3.7860834709135816e-05,
        6.710873549309326e-06
      ]
    },
    {
      "children": [
        40
      ],
      "name": "Right_Ring_Finger_Joint_01a_032",
      "rotation": [
        0.010510779917240143,
        -0.008772642351686954,
        -0.002388624707236886,
        0.9999034404754639
      ],
      "translation": [
        -7.225248336791992,
        -1.39042329788208,
        1.355821132659912
      ]
    },
    {
      "children": [
        41
      ],
      "name": "Right_Ring_Finger_Joint_01b_033",
      "rotation": [
        0.0007561775855720043,
        -0.0005079144611954689,
        -0.011838989332318306,
        0.9999296069145203
      ],
      "translation": [
        -3.8334572315216064,
        -1.4894433661538642e-05,
        2.938365469162818e-06
      ]
    },
    {
      "name": "Right_Ring_Finger_Joint_01c_034",
      "rotation": [
        -0.011060424149036407,
        0.00026769700343720615,
        0.02419457398355007,
        0.9996460676193237
      ],
      "translation": [
        -2.1700310707092285,
        2.0217867131577805e-05,
        -9.377064088766929e-06
      ]
    },
    {
      "children": [
        43
      ],
      "name": "Right_Pinky_Finger_Joint_01a_035",
      "rotation": [
        0.010538500733673573,
        -0.008739322423934937,
        -0.005554213188588619,
        0.9998908638954163
      ],
      "translation": [
        -7.244643211364746,
        -1.3907843828201294,
        3.1932003498077393
      ]
    },
    {
      "children": [
        44
      ],
      "name": "Right_Pinky_Finger_Joint_01b_036",
      "rotation": [
        0.0009738355875015259,
        -0.0006409738562069833,
        -0.01486213319003582,
        0.9998888969421387
      ],
      "translation": [
        -3.05161452293396,
        -4.781159987032879e-06,
        6.0660286180791445e-06
      ]
    },
    {
      "name": "Right_Pinky_Finger_Joint_01c_037",
      "rotation": [
        -0.011272594332695007,
        0.0003426716721151024,
        0.030382683500647545,
        0.9994747042655945
      ],
      "translation": [
        -1.728294849395752,
        -1.9535615138011053e-05,
        1.4650439652541536e-06
      ]
    },
    {
      "children": [
        46
      ],
      "name": "Right_Thumb_Joint_01a_038",
      "rotation": [
        0.4233162999153137,
        -0.3750433027744293,
        0.09540078043937683,
        0.8191730976104736
      ],
      "translation": [
        -4.612093925476074,
        0.39559876918792725,
        -4.78250789642334
      ]
    },
    {
      "name": "Right_Thumb_Joint_01b_039",
      "rotation": [
        0.12274438142776489,
        0.08501493185758591,
        -0.31844958662986755,
        0.9361069202423096
      ],
      "translation": [
        -2.877840280532837,
        0.16480286419391632,
        0.2404087632894516
      ]
    },
    {
      "children": [
        48,
        52
      ],
      "name": "Hip_040",
      "rotation": [
        -0.03774018585681915,
        0.9992876052856445,
        5.511963341244668e-17,
        -1.6300861872800332e-16
      ],
      "translation": [
        -2.8992068767547607,
        -0.25938722491264343,
        1.2299110035336757e-15
      ]
    },
    {
      "children": [
        49
      ],
      "name": "Left_Thigh_Joint_01_041",
      "rotation": [
        0.995700478553772,
        -0.09263136982917786,
        -6.7376924769433e-17,
        7.242388455886404e-16
      ],
      "translation": [
        12.213361740112305,
        1.133199691772461,
        -6.890555381774902
      ]
    },
    {
      "children": [
        50
      ],
      "name": "Left_Knee_Joint_01_042",
      "rotation": [
        4.440106210744252e-16,
        -8.354492753922303e-18,
        -0.018812645226716995,
        0.9998230338096619
      ],
      "translation": [
        37.17338180541992,
        -0.19966115057468414,
        7.303617000579834
      ]
    },
    {
      "children": [
        51
      ],
      "name": "Left_Ankle_Joint_01_043",
      "rotation": [
        0.869254469871521,
        -0.4943649470806122,
        -3.0271121193908826e-17,
        5.3226484996831265e-17
      ],
      "translation": [
        43.40501403808594,
        -1.7763568394002505e-15,
        0.0
      ]
    },
    {
      "name": "Left_Toe_Joint_01_044",
      "rotation": [
        -0.22729197144508362,
        0.6695807576179504,
        0.22729197144508362,
        0.6695807576179504
      ],
      "translation": [
        13.787192344665527,
        -4.440892098500626e-15,
        1.7763568394002505e-15
      ]
    },
    {
      "children": [
        53
      ],
      "name": "Right_Thigh_Joint_01_045",
      "rotation": [
        1.7624734876119627e-32,
        2.3118700128907355e-32,
        0.995700478553772,
        0.09263136982917786
      ],
      "translation": [
        12.213350296020508,
        1.133195400238037,
        6.890560150146484
      ]
    },
    {
      "children": [
        54
      ],
      "name": "Right_Knee_Joint_01_046",
      "rotation": [
        4.90631975763793e-32,
        1.325130520514943e-32,
        0.018812645226716995,
        0.9998230338096619
      ],
      "translation": [
        -37.17341232299805,
        -0.19967059791088104,
        7.303639888763428
      ]
    },
    {
      "children": [
        55
      ],
      "name": "Right_Ankle_Joint_01_047",
      "rotation": [
        -4.620869762450351e-33,
        -1.6807907361620236e-32,
        0.4943649470806122,
        0.869254469871521
      ],
      "translation": [
        -43.40497589111328,
        7.89986825111555e-06,
        -1.7763568394002505e-15
      ]
    },
    {
      "name": "Right_Toe_Joint_01_048",
      "rotation": [
        1.2219929068635338e-08,
        4.148105858803319e-09,
        0.32143938541412354,
        0.9469301700592041
      ],
      "translation": [
        -13.787201881408691,
        6.441087407438317e-06,
        -5.3290705182007514e-15
      ]
    }
  ],
  "samplers": [
    {
      "magFilter": 9729,
      "minFilter": 9987,
      "wrapS": 10497,
      "wrapT": 10497
    }
  ],
  "scene": 0,
  "scenes": [
    {
      "name": "Sketchfab_Scene",
      "nodes": [
        0
      ]
    }
  ],
  "skins": [
    {
      "inverseBindMatrices": 4,
      "joints": [
        4,
        7,
        8,
        9,
        10,
        11,
        12,
        13,
        14,
        15,
        16,
        17,
        18,
        19,
        20,
        21,
        22,
        23,
        24,
        25,
        26,
        27,
        28,
        29,
        30,
        31,
        32,
        33,
        34,
        35,
        36,
        37,
        38,
        39,
        40,
        41,
        42,
        43,
        44,
        45,
        46,
        47,
        48,
        49,
        50,
        51,
        52,
        53,
        54,
        55
      ],
      "skeleton": 4
    }
  ],
  "textures": [
    {
      "sampler": 0,
      "source": 0
    }
  ]
}
